/* XPM */
static char *_887c9989dd24d31edb85e9cd942f2a2HxLNtGmU3xPaXB0r[] = {
/* columns rows colors chars-per-pixel */
"50 50 245 2 ",
"   c #1C3301",
".  c #263A01",
"X  c #333F08",
"o  c #272900",
"O  c #0D4B05",
"+  c #134F08",
"@  c #0E5405",
"#  c #135404",
"$  c #165B04",
"%  c #1A5C06",
"&  c #15540B",
"*  c #1A550B",
"=  c #165A0B",
"-  c #1C5C0C",
";  c #1A5506",
":  c #145312",
">  c #1C5510",
",  c #165B10",
"<  c #1C5C12",
"1  c #1B591A",
"2  c #104C11",
"3  c #244501",
"4  c #294805",
"5  c #314501",
"6  c #354C08",
"7  c #225D0D",
"8  c #2A5C0D",
"9  c #265608",
"0  c #355A00",
"q  c #3C5C02",
"w  c #34530D",
"e  c #385606",
"r  c #225D12",
"t  c #2C5D14",
"y  c #275714",
"u  c #3B5B13",
"i  c #395715",
"p  c #3C491B",
"a  c #1D6206",
"s  c #1E620C",
"d  c #1F690C",
"f  c #1E6211",
"g  c #1D6B11",
"h  c #236406",
"j  c #22640D",
"k  c #2B620E",
"l  c #246A0D",
"z  c #2A6B0E",
"x  c #266606",
"c  c #3C6203",
"v  c #37690A",
"b  c #246513",
"n  c #2A6513",
"m  c #256A12",
"M  c #2A6C14",
"N  c #25631A",
"B  c #2C651A",
"V  c #256B19",
"C  c #2C6C1B",
"Z  c #336414",
"A  c #326C16",
"S  c #336B1A",
"D  c #39671A",
"F  c #2C7114",
"G  c #2D721A",
"H  c #277218",
"J  c #317415",
"K  c #33741B",
"L  c #3C721A",
"P  c #33791A",
"I  c #3C5A25",
"U  c #386A23",
"Y  c #2F7422",
"T  c #347521",
"R  c #377623",
"E  c #296620",
"W  c #425D08",
"Q  c #445118",
"!  c #436402",
"~  c #466B02",
"^  c #496B02",
"/  c #43640C",
"(  c #486A0B",
")  c #526B06",
"_  c #4C7301",
"`  c #487506",
"'  c #527403",
"]  c #537A04",
"[  c #577909",
"{  c #476918",
"}  c #556A19",
"|  c #4A7619",
" . c #58771A",
".. c #637F09",
"X. c #637E1F",
"o. c #4D5B22",
"O. c #476A23",
"+. c #536925",
"@. c #487728",
"#. c #5A7C26",
"$. c #587728",
"%. c #4C7936",
"&. c #557937",
"*. c #5F6D3A",
"=. c #637C2C",
"-. c #667D25",
";. c #647A36",
":. c #577141",
">. c #5D810C",
",. c #5E8206",
"<. c #568319",
"1. c #668807",
"2. c #739302",
"3. c #799B09",
"4. c #6B8C12",
"5. c #668817",
"6. c #6E9219",
"7. c #74941B",
"8. c #749B1C",
"9. c #789916",
"0. c #7CA01E",
"q. c #4E832E",
"w. c #598427",
"e. c #588436",
"r. c #628322",
"t. c #6D8D25",
"y. c #64852C",
"u. c #658C2B",
"i. c #678C27",
"p. c #6D9428",
"a. c #779927",
"s. c #6C8B35",
"d. c #678739",
"f. c #75883A",
"g. c #689339",
"h. c #779739",
"j. c #718B26",
"k. c #7EA527",
"l. c #7BA43C",
"z. c #5D8F43",
"x. c #648544",
"c. c #699548",
"v. c #779845",
"b. c #779854",
"n. c #738C4E",
"m. c #75A555",
"M. c #769A63",
"N. c #7CA865",
"B. c #7BB163",
"V. c #829D0F",
"C. c #86A408",
"Z. c #89A817",
"A. c #91A813",
"S. c #98B81A",
"D. c #8DB01E",
"F. c #A4BD1B",
"G. c #819D28",
"H. c #849B37",
"J. c #8CAB2C",
"K. c #87A926",
"L. c #90AD24",
"P. c #9BBC23",
"I. c #96B728",
"U. c #87A836",
"Y. c #96AD36",
"T. c #8BB139",
"R. c #99B635",
"E. c #A0BE2C",
"W. c #A4BA3A",
"Q. c #B0BF24",
"!. c #AAC71A",
"~. c #B2C817",
"^. c #9DC133",
"/. c #ABC82A",
"(. c #B8CE29",
"). c #BBD52A",
"_. c #A9C737",
"`. c #B4CC3A",
"'. c #BDD532",
"]. c #BCD737",
"[. c #C2D728",
"{. c #C5D938",
"}. c #D1DF35",
"|. c #D1E330",
" X c #829C48",
".X c #849B56",
"XX c #8B8E57",
"oX c #85A748",
"OX c #94A849",
"+X c #8BB245",
"@X c #97B646",
"#X c #87A657",
"$X c #91A75B",
"%X c #88B659",
"&X c #95B759",
"*X c #A5BB46",
"=X c #A4BC59",
"-X c #B0BF48",
";X c #87A864",
":X c #97AB67",
">X c #89B766",
",X c #97B868",
"<X c #9AB772",
"1X c #91AE75",
"2X c #A5BD66",
"3X c #A7BD74",
"4X c #939D69",
"5X c #ABC649",
"6X c #B5CC47",
"7X c #B8D446",
"8X c #ACC553",
"9X c #A7C854",
"0X c #B3CB56",
"qX c #BED352",
"wX c #9DC575",
"eX c #92C466",
"rX c #ACC96A",
"tX c #B4CB66",
"yX c #BBD666",
"uX c #A9C877",
"iX c #B3CF76",
"pX c #B6D479",
"aX c #A5D478",
"sX c #9DC451",
"dX c #C4D847",
"fX c #C6DA5A",
"gX c #CDE950",
"hX c #C3DC75",
"jX c #C5DE6C",
"kX c #C8E579",
"lX c #D1E86A",
"zX c #B2BF89",
"xX c #A8CD89",
"cX c #A8D48B",
"vX c #B8D996",
"bX c #B3CC8F",
"nX c #B9DD9A",
"mX c #C6DC91",
"MX c #C8EA88",
"NX c #D4EC8D",
"BX c #D0ED90",
"VX c #E4F789",
"CX c #D2EFAD",
"ZX c #F1FFA8",
"AX c #F2FFC4",
/* pixels */
"# $ < N f - - s N - < N - C j j j h m m V V K n % b Y V H z x F m b - - j m l F P F l z z z a G m a ",
"- - & & - - - f N V - s Y G C s M z M M H V m l # 7 M j F J P P M j % M m h F F l l F a l l s M M l ",
"# # + - N - - < B C a d m T M l M F J F H H F h 7 k k A P x h z m j $ $ m H a F j h z l h F $ m l a ",
"* & * N j a N b b $ a d H j a l J z l M K M P M Z | m.%XL z n M S % s $ m $ z M m j m l z m $ m m j ",
"+ E 1 < M h % j j j j l m m M z l l M A A A l M e.,X,XaXe.e.e.&.e.A - b a d l h j b b M l m s M a % ",
"> r : = a a x h C C S n n C S 9 l l @.g.| w.Z 8 e.iXy.y.xXxX,X;X<XD ; % a z z P M M j K h l $ s m j ",
"> r & - M l l j > U t B n C - C R c.,XiX8XhXmXvXpX2X X#Xd.w.( s.b.x.D n j G l l m $ a l G m b m M m ",
"> N # ; m j l b y >X#Xv.eXq.r t g.MX2XH.W.lXZXmXpXOX,XuX#.( '  .{ w i Z S A l G H g m j l b - s b a ",
"N - - s s m j m @.wXpXhXkXh.9 >X&XjXlXlXW.lXfX*XyX@Xh.s.i.' a.5.q 4 4 { c.Z m G g H d s m b $ N M j ",
"= # - b s m b n c.xX@X*X8XkXvXwXa.R.qXlX_.6X`.6X0X5.p.h.a.U.J.a.0 5 6 Q ;.e.A K G d s a j % - V m j ",
"$ j # r b - - t b.mXH.-X=XBXvXg.8.`._.7X_.I.6X5X8X5.5.>...7...5.0 4 5 5 . .X&.K K m $ h # $ f V M % ",
"b - - r - b n b.CXuX*X-X0XpXw.c _.dX_.L.I.K.@XU.G.a.6.,.7.4.' 1.! ! 5 5 5 $.&.D S b j m j $ m f M % ",
"< < < N b t Z ,XAXNXfXdX`.R.9.2.).[.R.Y.U.a.l.&Xs.t.a.J.0.Z.9.1.,.[ ( W 6 5 3 %.e.r m F M a m f j $ ",
"& f & < t 9 pXrXNXVXdXdX`.P.`.{.[.(.A.Y.9XsXw.v.u.h.6.1.9.2.L.2.1.7.5.( u w w &.N.t j m h M j m m j ",
"b - O & 9 >XNX6X`.dX]./.P.P.'.).[.~.F.S.gX7Xc { <.U.5.4.1.3.S.S.A.Z.6.r.0 w i 1XM.O.Z j z J l j m j ",
"# N * r t pXlX{.[.'.'.P.D._././.(.'./.'.gX_.| g.l.T.T.a.8.9.Z./.`.Z.4.' 4 u b.;.x.c.U k x J m n b j ",
"& f & 9 y aXgX[.(.(.gX_.I.P._.E.L.W.dX6XW.@Xw.c.w.+XU.T.a.5.4.9.L.1.4.[ / e +.6 6 $.O.L z z z z K m ",
", # & y * cXgX(.'.'._.fXW.Y.J.@XU.p.U.8X7.^ v | { l.+Xa.p.t.t.' ^ ^ [ [ s.$.$.e { b.d.D A J F P F l ",
"- * + t t eXlX_.6X_.7XfX0XhX=X#X@.x | +Xa.w.v { #Xv.oX .u.p. .! ! ] ] ' h. .{ W #X:X@.@.K M R C P J ",
"% % - V ; eX9XI.*XU.4.] +XoX$X,Xk | %Xp.h.oX$.O.b.b.s.#.h.s.( ( ^ [ 5. .~ c ( / { +.@.q.x j C N z x ",
"- @ j b b aXkX5XU.&Xw.9 | q.u.oX+X6.oXh.H.v.+.Q p Q =.h.#XuX}  . . .[ ! 0 0 ( / { <XcXS l j l m m j ",
"< = s m N q.9XyX=X&X@.Z 8 @.oX+XyX@X) }  .f.+.X o   =.v..XbX$.-.-.) ^ 0 0 0 c / e d.cXS - M z z M b ",
"1 & # b b h | tX0X@X=X=XiX#Xd.+. .-.d.$Xf.=.=.i 4 . ;.:XbX1Xo.:X-.! W 0 ! q q } .XO.D B n m M x a - ",
"1 2 * - j z ( jX6XfXfXfXtX-.5 . Q v. X,X&XH. Xs.v.d.6 o.4Xo.;..X$.( r. .c / { | ;Xb.t B - l K h M m ",
"1 : N - - e.MXfX{.[.[.[.`.G.} *.vXvXy.[ U.R.a.4.a.h.+.. o Q $X#Xy.s.y.u.v v Z L U @.U V s m l % h m ",
": & < - # e.hXdX}.|.|.|./.5X X+.3XrXp.] L.Z.L.9.1.j.e Q XXXX$.d.=.s.y.<.v { Z Z U S N C G a T a a l ",
"& O # r - L rXlXdX}.}.[.6X@X| v ] 7XI.2.V.L.R.4.] p.{ X n.:X;.d.#.#.| | $.Z { D   y B.R b m m a j m ",
"@ < N - - 8 rXVX7X{.{.7X@X .v ` _.'.!.F.S.L.J.' _ _ ( f.n.;.d.v.#.{ 0 { { D { u i 3 c.B N K M m j m ",
"& & & O 2 8 rX5XdX].`.5Xh.#.~ 8.gX~.!.F.A.3.7.[ _ _ j.OXOXf.s.y. .q / { u u w 6 w i %.U - M m l j m ",
"= = & * > 9 rX0XdX].R.G.s.&XrX*XS.C.S./.3.9.9.1.[ ' ..a.H.X.u.y./ 0 q e { w 4 4 3 4 b.U - M m m m F ",
"@ = - - < 8 uXhX6XE.^.U.oXh.s.t.K.S.P.S.Z.Z.2.1.' ..7.a.a.i.5.r.r.( q { 3 4 I I &.;X%.t - z l F z M ",
", @ s j N k aXNX0X5X@X@X,Xe u ,XU._.P.P.^.S.C.V.1.R.Y.U.T.p.>.<.p.<.( { 3 . :.nXxX1XU B m z M J z z ",
": & = j j k >XMX9X8XhX2Xn..X<XuX9X^.P.P.C.A.!.!.Z.*XVXU.a.4._ [ >.' 0 W w . n.bXI y U A m a K l % l ",
": & < - - 7 L aXBXBXuX:XbXbX.XrXyXK.D.C.A.F.!.).V.@XmXr.5.6.' 6.8.5.q { +.i I M.M.U M C m j K m j b ",
"< & f - f m n @.wXuX:XmXCX3X XtX8XJ.9.2.C.S.!.S.7.2Xd.#.t.] ,.6.9.,.r.v.O.i xX1Xz.B n K C s h F b - ",
"1 & - - M N n B k { ;XbX<X,X@X@X*XG.4.1.2.S.S.3.t.uXCXCXu.^ ] 8.0.6.h.$.w D c.@.@.n b b N b l P C b ",
": & & b - $ C M A S 8 @.#Xh.K.K.7.4.a.[ 1.1.^ ] i.#.;XvX&X~ ~ a.1.>.| { w t B S m M K V - - l M m m ",
"O 1 & - C f C a h l B @.%X&Xk.8.a.a.+Xh.[ ^ ! ~ w.#.+.x.{ | ( ^ ^ ~ d.;Xc.U S - l m m f f b l x m M ",
": O N < N N V s $ a b S q.vX%Xp.<.v v | w.w.| #.w.#.b.x.&.b.#.0 | v.,Xc.%.B - 7 a P m G b m l M l H ",
"& > & 1 < N f s $ s s C n c.w.v h M h J m.e.$.#.y.#.<XvXvXcXd.d.e.e.CXm.t > - - m P l F % M G M j M ",
"# - - N N > N N - s b < b r 9 8 Y = m l z.e.{ c.v.{ x.vXO.t c.c.S S B.n - - C s m M M h l G m T N M ",
"$ # b b - > r N - s f N N r r C R H H a L Z Z @.g.c.&.N.S A B B B n b K b # C j m F M l M m b T C N ",
"f - C 7 # 7 V r - b s - - b n j - a m m n Z A k k U Z R M F m - b F j M G m a a z J K m j l m a b m ",
", < N * + * B 7 - - b f M % m m m % a j j S K n % % A z M M K l z F z l M m M h z M M M b l G j $ - ",
": : 1 < r - N C N r b b C m M m M l m m M J K m j j m l l M z x x J l h M M F z h M n V K j j j j % ",
"2 2 1 & < - - N N b b j j G M b m M b j M M R m s b m M P R M J P z M % = G G l z M - - n % a M m j ",
"& 1 < # - s s m s j b b % m M T M C b f C N m a N N K J K C n m A n l j B N m h a - r V K a j G a j ",
"O - & - - a m m b f N - # C b b b - s - N N b m j m K m j C C j K M b M N N s % $ C B - b j j m m l ",
"& # & - - - s j j j # - - N j m j m - s C M b m l M R j M M M l K M M m b j j M j b N - b M # N b l ",
"< - - - - - - $ b - > # N j j b b M - j C b b b M m M m M l l M J l m m j l l M - - b - b b # b m b "
};
