/* XPM */
static char *e3708b398f434378f8eb0dde12c00879fUU9bJ9ihe8Oidvh[] = {
/* columns rows colors chars-per-pixel */
"50 50 220 2 ",
"   c #6F1D1E",
".  c #782628",
"X  c #773A3C",
"o  c #154E0F",
"O  c #15550E",
"+  c #1A560D",
"@  c #175C0D",
"#  c #1C5B0E",
"$  c #155312",
"%  c #1A5511",
"&  c #1C5C12",
"*  c #195A15",
"=  c #215E0E",
"-  c #225D13",
";  c #225B1C",
":  c #1E630D",
">  c #1F680E",
",  c #1E6212",
"<  c #186812",
"1  c #23640E",
"2  c #29660D",
"3  c #256A0E",
"4  c #2A6C0E",
"5  c #306F0F",
"6  c #2C710E",
"7  c #32720E",
"8  c #35760E",
"9  c #246413",
"0  c #2A6513",
"q  c #266A13",
"w  c #2B6C14",
"e  c #25631A",
"r  c #2B651A",
"t  c #266A1A",
"y  c #2C6D1A",
"u  c #316E15",
"i  c #326D1A",
"p  c #2D7114",
"a  c #2E711A",
"s  c #2F7918",
"d  c #337314",
"f  c #327616",
"g  c #397515",
"h  c #357915",
"j  c #3A7B15",
"k  c #33731B",
"l  c #39751B",
"z  c #35791B",
"x  c #3B7B1B",
"c  c #2E6D20",
"v  c #356E22",
"b  c #357421",
"n  c #397621",
"m  c #367824",
"M  c #3C7B22",
"N  c #427E1C",
"B  c #417E21",
"V  c #4D752F",
"C  c #437537",
"Z  c #744040",
"A  c #8D272B",
"S  c #863537",
"D  c #8A3E3E",
"F  c #923538",
"G  c #A23336",
"H  c #93403F",
"J  c #943E40",
"K  c #E23D40",
"L  c #894648",
"P  c #8A4C4D",
"I  c #9A4546",
"U  c #924D4E",
"Y  c #914E50",
"T  c #875252",
"R  c #8E5354",
"E  c #8D5A5A",
"W  c #9B5555",
"Q  c #965758",
"!  c #A64647",
"~  c #AE4D4D",
"^  c #BA484A",
"/  c #BE4E52",
"(  c #A45554",
")  c #A75957",
"_  c #B65959",
"`  c #B25C5B",
"'  c #A9605F",
"]  c #8C5E60",
"[  c #8F696B",
"{  c #966768",
"}  c #997778",
"|  c #AC6562",
" . c #AB6968",
".. c #B86A69",
"X. c #B86F70",
"o. c #AA7577",
"O. c #B67574",
"+. c #CB4447",
"@. c #D64B4F",
"#. c #C95758",
"$. c #DD5E5C",
"%. c #CC6867",
"&. c #D36763",
"*. c #D86E73",
"=. c #C57A77",
"-. c #D7767A",
";. c #D57C7E",
":. c #DD7A7D",
">. c #E96769",
",. c #EE7478",
"<. c #E5787B",
"1. c #3A8117",
"2. c #3E811D",
"3. c #41831C",
"4. c #478626",
"5. c #50852B",
"6. c #678759",
"7. c #778B6E",
"8. c #799370",
"9. c #80906F",
"0. c #ED807A",
"q. c #AA7C80",
"w. c #DE7E83",
"e. c #E67B86",
"r. c #E37D84",
"t. c #EB7B84",
"y. c #F37E88",
"u. c #869881",
"i. c #949F81",
"p. c #A88787",
"a. c #B88786",
"s. c #AE9393",
"d. c #8BA183",
"f. c #97A78F",
"g. c #98A790",
"h. c #A4A88F",
"j. c #A7AD9B",
"k. c #BAA6A6",
"l. c #BBB7A7",
"z. c #BFB0B0",
"x. c #C68883",
"c. c #DD8589",
"v. c #D5918D",
"b. c #DC8E93",
"n. c #D89B99",
"m. c #E68087",
"M. c #E4848B",
"N. c #ED838A",
"B. c #E2898D",
"V. c #EA898E",
"C. c #F28489",
"Z. c #E78A93",
"A. c #EC8B93",
"S. c #F28C94",
"D. c #F38F99",
"F. c #E49295",
"G. c #EB9296",
"H. c #E4959A",
"J. c #ED949B",
"K. c #E59C9E",
"L. c #EB9A9E",
"P. c #F3949B",
"I. c #F8959A",
"U. c #F39B9F",
"Y. c #EC9CA3",
"T. c #EA9BA4",
"R. c #F397A1",
"E. c #F49CA3",
"W. c #F99CA3",
"Q. c #F59EAA",
"!. c #C2AEAE",
"~. c #DAAAAD",
"^. c #C0B9A6",
"/. c #C8B9B4",
"(. c #D3B4B4",
"). c #ECA1A4",
"_. c #E7A6A8",
"`. c #EEA5AA",
"'. c #F4A2A6",
"]. c #FAA8A2",
"[. c #F4A4AB",
"{. c #F9A5AB",
"}. c #F4AAAD",
"|. c #F9AAAE",
" X c #EEAEB2",
".X c #F5A7B1",
"XX c #F5ABB2",
"oX c #F9ACB3",
"OX c #F8ABB6",
"+X c #E5B4B7",
"@X c #F5B1B5",
"#X c #F9B2B5",
"$X c #F3BCB7",
"%X c #F5B4BA",
"&X c #F9B4BB",
"*X c #F6BABD",
"=X c #FAB9BE",
"-X c #C0C2B9",
";X c #E4BAC1",
":X c #F6BDC2",
">X c #FABDC2",
",X c #CEC5C5",
"<X c #D1C6C6",
"1X c #D8CCCA",
"2X c #DDD6D5",
"3X c #E6C9C7",
"4X c #F4C4C6",
"5X c #FBC2C5",
"6X c #FBC5CA",
"7X c #FCCACD",
"8X c #F9D2CE",
"9X c #EDCED0",
"0X c #FCCDD2",
"qX c #E7D7D7",
"wX c #F4D7D4",
"eX c #FDD2D5",
"rX c #FCD4DA",
"tX c #FDDADC",
"yX c #FEDDE2",
"uX c #FEE0E4",
/* pixels */
"# - & 0 9 9 1 , q , 1 9 9 h k 9 w a w k w f k k + 3 d k l d k h p w : q q w f N k j 3 f p a 1 z w 2 ",
"9 2 2 - % 2 9 r w q w w k k k w w w p k z h z q 9 4 d k h x z j d 0 > p 9 6 h d p q 1.1 w 8 3 j f h ",
"% # O 9 y w 9 9 k d 1 a z k y p k k h j k i b 4 9 q b f B k w w f w 2 q 4 p w f w , d 7 q h 1 p 4 4 ",
"1 + # q q 9 w q w : 3 w f y w t m w a y x x x a w p w k M w w q p w e O q 9 f p k w q k q d 3 k 6 w ",
"% k 1 q w 4 # y 9 w r a y a y d q w z f x a k w k 1 q n k a d 0 2 q 0 d 1 4 4 q 1 p 5 7 p d 9 f 9 1 ",
", & 9 - y w r q y y V w 0 k x 9 w h y y a x w q d 3 w a k i 2 1 4 k : 9 9 a f h h 4 q M 9 p 1 a 6 1 ",
"9 9 = 0 y d d w 1 x w d w h - a z w w x d d g w w h p b 7 i 4 6 4 z 2 9 y x f k d 9 y 3 8 w 1 u p p ",
"% w % 9 t w w u w 9 d k w p w q p 9 q t q x x p p p d a 0 u d 4 f ^.3X1XwXf.z d f 6 5 p q d # q a 2 ",
"q - 1 % a 0 - w i w q w 3.k , y q = q k x w h k w l g l w f k rX5X*X5XeXeX8X3Xk p 4 w w 6 4 1 w 6 q ",
"# + q w e w 6 u h d d k q g k w w r w w k h l k d k w x k 7X%XE.P.Y.'.'.G. X4X8XqXj.wX9X7.# 9 w w 9 ",
"9 q @ 9 y 3 w 9 a a i f z y k y q a i d y i 9 x d j x eX>XE.oX5X).}.'.}.`.-.;.K.6X7X5X:.-.+Xk d q 2 ",
"w 1 & q w q q q w 1 k u 6 a x i i y k q k k k 2 2 6X=XOXE.{.D.>X[.}.J.5XH.c.F.;.c. X*.B.H.B._., d 1 ",
"w q + q w w w 1 & w f 6 k x w w k f.d f 6.h.i.9.|.7X5X{.>X'.oXoX&XE.=X&X@XK.`._.-.B.L.K.[.[.).9Xa # ",
", 9 & 9 w w 9 a w 2 y w y 9 j.qXu.w /.l.^.l.h.*XoXoXM.'.>X&X#X5X=X>X*X@X5XK.).XXK.F.).5XeXeXeX8X7 2 ",
"w 1 $ - & + w y 0 9 u m g :X|.'.5X=X5X5X5X7X5X#XE.J.A.R.I.E.=X{.|.W.[.}.F. XF.%Xb.T.L.E.5XtXtX3X4 w ",
"& w 9 9 t q 0 w 6 q qX'.I.oX#Xt.|.[.>X5X|.>XU.'.'.P.'.R.#X%X%X{.=X5X6X'.#XF.Y.G._.F.T.@XXX7X$X(.q 0 ",
"9 > # , q , k k g.=XS.D.S.6X@XC.V.<.'.=XU.oX'.J.P.R.>XE.&X&XoX=X>X%X%X*X:X%Xr.&X).b.b.b.`.@X=.-X3.4 ",
"9 & % , + & 9 q E.P.N.P.E.L.%XD.r.Z.m.m.}.@XP.*XA.[.%XE.&X>X&X6X|.P.'.M.H.H.J.r.H.;.L.L.n._ s.1.h q ",
"> + % 9 0 1 w %Xy.y.N.M.T.m.}.&X,.V.<.N.N.G.N.XXE.W.>X:X|.#XE.{.7X5X*X}.J.Y.J.L.c.:.&._ W P j k j 2.",
"& 9 9 w 9 q ;XoXS.U.y.A.r.t.L.6XV.Z.J.N.N.E.P.A.[.>X&XrX>X0X}.P.=X@XJ.J.E.T.r.w.G...) W [ 2Xw 6 7 8 ",
"q O 0 q & 9 y.N.e.&X'.[.<.E.{.6XJ.N.{.}.Y.S.E.E.P.&X>XyXE.{.oX'.7X'.E.E.N.:.m.B.` W W p.e q d w N 0 ",
"q # q t a +XE.N.t.[.7Xm.J.J.*XM.L.=X[.%XM.S.{.[.R.R.>XrX@XXXXX6X}.R.J.c.w.c.<.X.Y U k.w w n k w d w ",
"9 O @ a l.XX[.I.t.[.%Xr.L.A.T.r.t.0X|.6XJ.XXXXA.E.J.oXrX6X[.'.=XXXB.M.M.*.w.=.R P <Xw d q w p d w 9 ",
", O O u.XXA.e.5XE.V.E.C.A.XXM.e.P.5X=XI.r.%XT.Y..X.XI.%XrXoXoXR.`.F.G.w.c.X.P D -X2 d q q a h u z w ",
"e & t 9XP.Q.P.[.R.<.R.W.J.Z.G.J.'.W.0XD.e.T.7X@X6XoX.XQ..X6X{.oX%XXXV.:.` L L ,Xg w w a q a q 1 9 a ",
"O O q `.E.XXS.P.}.P.A.%X{.XXV.XX6X=X*X[.OXA.rXeXOX.X>XOX*XXX}.>X6X@Xv.! S P 2Xw q a q k x y h 2 3 k ",
"9 o & _.%XXX{.E.R.XXE.J.A.E.A.R.}.J.E.@X7X}.&XuX>XQ.P.6XoX`.@XeX5X_..   Z ,X9 k a 9 w p w a w w , u ",
"@ , w qXtX7X&XD.e.G.w.-.Y.#XP..XQ.P.R.Q.XX[.Q.6XyXW.[.oX5X@X}.&X_.L X k.i i d g w q d 0 4 j q w d w ",
", & % + 4XyX7X#XJ.'.J.T.}.}.Y.XXE.oX&X.XOX>XXX6XrX@XR.&XXX}.'.b.) X } q q d k h a 4 4 k ; k d g d f ",
", , & # +X7XeX6X&XoX>X%X0XrXyXtXtXyXyXyXtXtXyX>X%XE.}.}.#X:.~ W E { d w 9 q w a k y 9 k : y f 6 q x ",
"< & 0 $ 9X'.=X=XXX&X6X[.&X5X&X6X>X>X6XtXyXyXuX>XE.XXE.N.-.! L E { 8.k w # w a q k a w 4 1 y d h a f ",
"@ , y , C J.{.XXE.&X7X&X7X&X>XOX&XoX{.oX>X&X6XE.A.S.F._ D R T { 1Xk x w 9 l w q 2.q y w k k k j u g ",
"- o w a 9 V.E.>X0XXXXXeX0X0XrX6X6X>X5X=X#XC.,.D.N.+.~ Q [ ] { <Xx k g # 1 i m M w d x y g y h d 9 w ",
"& % , 3 9 ~.eX0XrX7XyXeX>X%X%X6X%X&X}.S.>.+.@.<.^ A F Q [ p.f.z p x M 0 q k k w f k d l k q k a q w ",
"9 % q & p (.eXoXoX[.6X>X0X6X>X&X#XS.,.#./ ^ ;.~ S D S Y s.l x b x 4.k y p k k a k w y k l d i h w r ",
"& * 9 1 9 (.&X0XeX6X>XW.W.=X}.{.U.>.&.%.! _ ~ I P Q R Q d.4.m b 4.m x f a l x k N k b q y 4 i d x 4 ",
"O & & > t 1X&.>.U.I.].<.>.0.$.$.+.^ ! ~ ~ ` I U U { { 2Xb M p m m z f M w q z k h a x f & e k k a w ",
"O 9 & q a 2X..%.@.K <.#.^ ^ ^ ~ ( A I ! I D P P p.!.x 2.x l z 2.k c M x k g i 0 q g k 0 9 y q y w z ",
"& % y 9 r a O.X.#.+.&.X.G ! ~ I  .H I F S L { } x k x m d B a x d h k k z 0 6 w u M k 3.q h q d w k ",
"& # * 9 t w /.q.=.-.%.x.I A ( ( ) ) D . } } z.k k k 0 k 4.x k g 0 d x k w 1 9 & w l y k 3 k k l w x ",
"= - 9 q q 0 e o.a.x.=.x.( F ' ) ) | E [ ,Xz a u M u g B l u l k w k l w q , p w d i k d d y k j a r ",
"# & w e # * q 2Xa.n.v.a.o.W I | D E E <Xx g i 9 g 9 e y x w y k z a d a w - x q a l y w f w 4 g g w ",
"0 t x q # r q w !.a.=.=.O.o.J D P L 1Xi d z k w 4 0 a 5.b w w q d b d g B y q 3 y l w a w u w q w y ",
"O q q + $ q s 0 9 a.X...O...O.( R /.y 2 q a k u 1 1 h i k g x 6 w 1.k d z 9 h w k k k a d w x k 1 q ",
"# 9 9 w 9 9 w d w 7.O.` | |  .a.a w a c w x x y 1 q d l i l x w k x q y a d k d a h q q x q q k 0 1 ",
"o $ 0 O 0 9 e r i q qX| p.k.<Xl w y h e v k x y q w q x M x y x m l w : 0 l m a a x 1 e i 1 9 w w 2 ",
"& 9 > @ , , e i 9 q w y 0 y k n a b t y w y b w w y M u k N d u l w i w w p i 3 4 & 0 w x w q d 9 y ",
"$ 9 > & 9 - y q a y a w = d y a 0 y c 9 i w w u t y n d w m i w x k 0 a w q 0 9 # l k 0 9 w y k w 7 ",
"% - 3 , q q w > q 0 & q y y i y 3 0 0 0 k d 0 y w n k 0 k l h 9 z h l q 9 h w f 9 w = , q d * w g - ",
"9 1 % : * = , # w - 1 O y q w 4 p k q u f w y w b a b k d d p k x u 7 6 0 0 i h 0 - q w 9 w & y d d "
};
