/* XPM */
static char *_338175dc8174c558410c22e37be7257g7I8nutIKvngSgNt[] = {
/* columns rows colors chars-per-pixel */
"50 50 245 2 ",
"   c #020206",
".  c #03040B",
"X  c #06090C",
"o  c #06150A",
"O  c #050814",
"+  c #0B0D12",
"@  c #0D151A",
"#  c #14161B",
"$  c #11320B",
"%  c #0A1626",
"&  c #171C23",
"*  c #0D1C34",
"=  c #1D222A",
"-  c #192737",
";  c #163536",
":  c #23252B",
">  c #25282D",
",  c #2D2F32",
"<  c #232D3A",
"1  c #33353A",
"2  c #14540D",
"3  c #1B5C0E",
"4  c #1A4912",
"5  c #1B5511",
"6  c #175813",
"7  c #1C5C12",
"8  c #205C0F",
"9  c #225E12",
"0  c #28561A",
"q  c #1E620E",
"w  c #1F6212",
"e  c #23640E",
"r  c #25690E",
"t  c #2A6C0E",
"y  c #2E700E",
"u  c #32720F",
"i  c #236413",
"p  c #296614",
"a  c #266A13",
"s  c #2B6C14",
"d  c #25651A",
"f  c #2A6619",
"g  c #26691A",
"h  c #2C6C1A",
"j  c #316E15",
"k  c #326E1B",
"l  c #2D7113",
"z  c #2E7119",
"x  c #327314",
"c  c #387915",
"v  c #33731A",
"b  c #39761B",
"n  c #36791B",
"m  c #3A7B1B",
"M  c #265E27",
"N  c #264D35",
"B  c #265D3B",
"V  c #1F6122",
"C  c #256223",
"Z  c #2B6C22",
"A  c #29642A",
"S  c #2C6B2B",
"D  c #31662E",
"F  c #326D2C",
"G  c #2E7128",
"H  c #337323",
"J  c #397726",
"K  c #33722C",
"L  c #256334",
"P  c #2C6A33",
"I  c #2B653D",
"U  c #2A6939",
"Y  c #326C38",
"T  c #327233",
"R  c #377337",
"E  c #447631",
"W  c #152946",
"Q  c #152847",
"!  c #1D3758",
"~  c #222F40",
"^  c #283949",
"/  c #353B44",
"(  c #283C56",
")  c #1D3A65",
"_  c #1C3E73",
"`  c #253D64",
"'  c #3C414A",
"]  c #275849",
"[  c #315D4E",
"{  c #294A59",
"}  c #374758",
"|  c #2C5A55",
" . c #345A58",
".. c #2B6243",
"X. c #2C6848",
"o. c #336C44",
"O. c #3C6943",
"+. c #33664C",
"@. c #346C4B",
"#. c #377345",
"$. c #2D6458",
"%. c #336C53",
"&. c #376859",
"*. c #336B5C",
"=. c #3B7252",
"-. c #254364",
";. c #2A4462",
":. c #26476C",
">. c #2C4B6D",
",. c #334A65",
"<. c #374D68",
"1. c #2C5967",
"2. c #365769",
"3. c #2C4B73",
"4. c #254A7C",
"5. c #284A79",
"6. c #354E74",
"7. c #2C5B72",
"8. c #2D517C",
"9. c #2B597A",
"0. c #355473",
"q. c #3B5573",
"w. c #3B5A75",
"e. c #32547B",
"r. c #375B78",
"t. c #33597D",
"y. c #2D6268",
"u. c #376967",
"i. c #32656D",
"p. c #3F766E",
"a. c #2E6477",
"s. c #366578",
"d. c #45484D",
"f. c #434A53",
"g. c #484C54",
"h. c #4D555B",
"j. c #52565C",
"k. c #476759",
"l. c #477557",
"z. c #4B7A51",
"x. c #4B4F61",
"c. c #485767",
"v. c #555B63",
"b. c #565B69",
"n. c #445B76",
"m. c #585E71",
"M. c #486B65",
"N. c #56626A",
"B. c #497367",
"V. c #486373",
"C. c #44637E",
"Z. c #4C647C",
"A. c #5B6475",
"S. c #576779",
"D. c #4A7176",
"F. c #587674",
"G. c #616469",
"H. c #656A77",
"J. c #636A7E",
"K. c #687378",
"L. c #74767C",
"P. c #40801B",
"I. c #61836A",
"U. c #1E4C8F",
"Y. c #254C82",
"T. c #2A4E83",
"R. c #274C88",
"E. c #2C5385",
"W. c #2C5785",
"Q. c #2C548C",
"!. c #2E5A8B",
"~. c #325683",
"^. c #385781",
"/. c #335B84",
"(. c #3D5D84",
"). c #335B8B",
"_. c #395F8C",
"`. c #2B5696",
"'. c #2E5A93",
"]. c #335D92",
"[. c #315E99",
"{. c #3A6586",
"}. c #35618C",
"|. c #3A628B",
" X c #2D6692",
".X c #366193",
"XX c #3A6493",
"oX c #35639C",
"OX c #3A669A",
"+X c #3C6998",
"@X c #265AA6",
"#X c #2D64AA",
"$X c #3768A8",
"%X c #2D66B7",
"&X c #326CB6",
"*X c #3673BF",
"=X c #415D84",
"-X c #476787",
";X c #42648B",
":X c #566C86",
">X c #467287",
",X c #57748A",
"<X c #446A93",
"1X c #4E6D92",
"2X c #436998",
"3X c #536E96",
"4X c #4B7297",
"5X c #547498",
"6X c #646C82",
"7X c #686F88",
"8X c #667789",
"9X c #6A728B",
"0X c #777C86",
"qX c #687993",
"wX c #707792",
"eX c #727A95",
"rX c #757E9A",
"tX c #5076A3",
"yX c #5A819B",
"uX c #628184",
"iX c #7D8289",
"pX c #6C8399",
"aX c #798599",
"sX c #6E8AA8",
"dX c #7989A0",
"fX c #85888D",
"gX c #81988B",
"hX c #858B93",
"jX c #828A97",
"kX c #8D9198",
"lX c #94979C",
"zX c #8697A8",
"xX c #959AA4",
"cX c #9CA5AB",
"vX c #94A5B7",
"bX c #A5ACB6",
"nX c #A8B1B7",
"mX c #ACB4BA",
"MX c #ABBAC8",
"NX c #B4BDC5",
"BX c #BDC4CB",
"VX c #BFC8D1",
"CX c #C4CDD4",
"ZX c #CCD4D8",
"AX c #EBEEF3",
/* pixels */
"3 i i g p p e a a i 9 p a n z p s z s v j x v v 3 a n n b x x c x s q a p z l m n c l l l l i n s e ",
"9 e 9 9 7 p i g s s p p v n x s l s v v v v v g i s l v n c n c x p q y s l v n l l c e s x a x l x ",
"7 3 2 i a s i i z x e s v n s l H H J K T F K S A C k v J v l l x a e r l l s x a a x l s x e y t t ",
"e 3 7 a a i p a p e r s x h s Z R U X.%.=.o.D @.&.%.p k J F S Z H Z d w s i x l l s s x l x i s t s ",
"5 z i i p s p f i s f s h H T Y X.*.i.a.1.7. .k.4 s.0 &.=.*.+...X.o.A T d p s s a l l l l x a x s e ",
"i 7 q i g p p p v v E s S Y %.y.7.{ C.2X.X:.).o - <Xs.{ ,X1.7.7.y.u.$...o.H H n x t a m a s r s l t ",
"i i 8 i h j l s i n R K @.%.7.9.!.).VXBX2X).e.8.~ `.:X} o <X5.!.|.{.M.M.l.l.I.E v i g s c s e s l s ",
"7 p 3 i h l s k g Z z.B.$.N }.'.'.oXsXqX<X).e.|.:X3XE.3X^ ).!..X_./.V.C.u.B.l.#.T R s l s x i a s i ",
"p i q i h j f Z Y P B [ a.! ;X2X$XoXOXt.} 2X<X8Xg., 2Xx.3.T.T.XXOX3XqXe.pXc.D.p.=.T Z s l s e s y i ",
"3 3 i s d s h F @.i.] ; r.E.S.C.).tX2Xe.q.-X^.:Xf.. ^ >.e.~./._.].'.3XpX;X<X<X>Xp.=.Z g i e a z s p ",
"9 i 7 i p e S A *. XW.Z.f.T.E.qXt.].8.6.( N.pXQ 8X<.<.. r.|.W.).~.].oXq.-XXX:XH.F.%.X.S i e s x a e ",
"p i i s p p C $.] {.%Xn.Q Q T.5.(.).).(.1Xn.K.} ` % . c.} |.).Q.E.E..X].5.=XqXq.F.D.%.T h e l i x e ",
"p p 7 s Z i D ] 7.3..X#X#XQ ) T.! ).].q.:Xb.-.* / c.  } S.- ).~.Q.W.).oX.X,.3.dX{.>Xp.#.J a l s s 3 ",
"7 i 7 p Z I 5 | 7.:.Q.;.<X$X* 5.3.:XOX4.( & 0.! Z.f.    } X ( _.|.E.W.].$X+Xq.q.zX{.M.o.S l t l u t ",
"p i 5 7 C $.] N qX).:.5XsX#X` _ - qX5.r.n.^ }     : d.  fXfX. <.).).E.Q.[.oXqXH.:X8XB.*.R m t s s s ",
"7 p i i S I  X; % 1X:.- &X} ,.3X8Xq.- NXZXC.O   j.mXnX. d.g.  O /.).~.W.E.OXoX8XS.qXD.*.T l x x s s ",
"9 q 3 w C O.| @XU.5.6.<.@XO ^ ! 0.:Xc.dXaX= @ X d.hX/ = X . v.' - ).).W.W.).oX).n.S.F.B.R h l x P.s ",
"w 7 3 i M B F.^ (.U.U.@X2X:Xn.@ @ % ) Q X K.BXG.h.7XA.0XfXO xXK.. ! ~.).).~.).[.<XV.k.l.K H v c x s ",
"i 7 7 d A @.F.cXL.> O ! %X% - N.h.  + 1 + cXL.J.J.6X6X6XxXK.. . + . :.|.)./.Q.].[.:X&.o.K n m x c m ",
"7 w p p A u.I.nX@ < 5X) R.`.S.    : lXCX> v.J.6X7X9X9X9X9XbXh.X mXj.X e.W.!.E.T.[.Q.D.D h s s y u x ",
"i 6 i a L k.$ Z.} aX( 1X-.#X_ + : 1 cXv.A.m.J.9XwXeXrXeX9XwXbX> j.#   * T.8.T.E.E.].$.S g p v x b p ",
"i 3 p g g M ] C.( ,.{ } . e.%X0XmX.   0Xm.A.6X9XrXaXaXaXeX9XjXkX. . g.# Q T.T.Y.T.E.i.h s H v s v s ",
"i 2 3 g h O. .,XH.w.q.n.6Xx._.&X, N., hXhXJ.6X9XeXaXdXrXeX9X6XxXH.+ NXg.. ` Y.4.4.4.y.T p s x x a i ",
"i 2 3 w a l. .2.Z.} ,.aXh.^ } $XtXmX> iXxXaX6X9XwXrXrXrXwX9XJ.m.xX/ O X X . 5.Y.4.T.| U a l m s l l ",
"d w a w i +.u.{ Z.qX,.( C.n.V.Z.*X!   j.xXxXwX7X9XwXeXwX9X6XA.b.b.0X= K.cXX 0.Y.4.T.1.S g l h e a x ",
"3 3 i w V L u.w.V.A.n.Z.1XbXzXH.-X*X0Xg.K.xXxX9X6X7X7X7XJ.A.m.f.H.G.: , g.. 5.Y.Q.5.7.U H s c t r l ",
"7 2 7 i M O.u.s.w.,X<X|.w.NXvX1XE.@XhX0X1 hXxXaXJ.A.A.A.m.x.G.kXkX1   # iX# )._ Q.E.{ d g l s s i x ",
"3 w p w d O.$.>X-X<Xw.,.0.-X$X%X@X* X mXv.g.kXxXJ.m.m.x.j.fXkXL.G., 1 BXnX^ E.!.5.Y.{ 8 h m s s l s ",
"7 7 7 2 6 M X.7.>XC.2.{.oX&XT.' 5X8Xv.. .   G.kXhXm.d.L.lXfXK.d.> nX> v.X q.4.T.Q.8.u.D i v x l x l ",
"w 3 7 3 i 7 ..y.{.|.|.&X$X,.<.7X|.n.' &     @ H.lXb.kXfX0Xv.& , ZXiX+ < & w.].5.!.t.s.*.i s x y a n ",
"7 7 p 7 i d I u.7.[.$Xe.^   % >.XX;X4XS.. # L.1 fX+ iXG.1 0XfX. : . . N.} ;X! )././.2.$.Z v j x s x ",
"3 7 a w s g U u. X|.{     ;..X).].W.{ ;XS., mX1 +   , @ xXnXG.  & c.b.  - 2X1X-X|./.i.+.K v v m j x ",
"i 5 i g i Z o.*.&.H.@ ^ {.+X.X)./.>.:X8Xq.d.d.BX+ + hXcX+ +   . (.} q.. - /.n.AXpXt.u.o.b s n s e s ",
"7 7 i i w V S +.F.ZX,X2X+XXX}.XX3.3.e.8.8Xf.. @ } NXK., f./ . 5X-.aX:X    ! |.zX= 7.y.#.H s n x s x ",
"i 5 p w s z T +.u.yX+XXX.X.X.X|.).XXt.t.:X1Xw.0.< h.< 4X,Xb.: 7X8.` 2.    ~ e.~.:.| *.T J s k x s f ",
"w 7 i i p h T o.$.a.}.].!.]..X8.-.>.t.sXzX|.~.|.pXv.,.e.e.qXf.:X/.-.!     ,.=X~./.i.X.S h s s x m s ",
"6 7 9 i g g K o.u.i.}.}..X.X.X~.e.;.( lXZX;X)..X:.- C.(.;Xn.>.~.].8.^.<.@ ~ 0.- s.u.#.G w f j v x s ",
"2 9 9 p h g H P X.u.{.XX.X.X.X.X|.OX|.tX5X|.1X:Xn.x.;X|.! Q.'.'.].).e.MXzX1X;.2.u.%.Y h a g i h s n ",
"7 7 f i h h h A ..$.a.{.}..X.X+X|..X).}.1X/ <.^ O >.XX~.+X).].'.).! (.bXbXe.4X2.O.#.K m p x p v s v ",
"7 7 7 i p a d C L $.u.s.}._.>.;.r.;.3.~.,XZ.Z.c.|.XX].].].).).e.Q 3.<X0.>.>.1.| =.K Z v e n n b k n ",
"8 9 p h a p g h C I *.i.1.w.vXjX,.e.).} aX- ^.XX.X]..X].].!.].~.W.e.>.:.>.1.| ..P K n j x v v c z g ",
"7 7 a p i d s p h A I +.u.{ nXnX} { /.e.-.|.+X|.].]..X].Q.E.T._.{   ^ -.:.{ @.L K J v s x x s c c h ",
"i a b i 3 i s i i p P B 4 1.s.w./.e.3.XX).XX].].].OX'.Q.W.-X0.@   o n.1.$...L C Z b x x a j s p s h ",
"3 a s 3 5 9 l p w h h A @.[ i.{.}.)..X).XX].].].'.).T./.1XCXh.o o $ >X&.I U T Z z v n j v s c h e p ",
"3 9 i p i i s x s p k S T %.u.s.{.t.}.).).].].'.].].>.<Xn.mXh.$ 4 0 p.+.T K H x l k p s m p s h p e ",
"2 6 i 7 i i g k k p h Z P z.l.u.$.1.7.}./.).].!.).:.yXC.s.2.uX0 p R o.L C J J z l b i f v i p x p t ",
"7 i i 3 i i f k p p s h Z R z.#.U ..u.M.2.t./.9.,XS.r.s.a.u.I l.F S F h s l v r a i p s c s s x i p ",
"6 i q i i i h s s p l i i z K P U ..+.gXM.u. .] 1.a.i.i.$.=.R P J J s l v s p s 7 v v p p s s v s u ",
"3 9 e w i i s i a p 7 p g h h z Z D I z.l.%.+.$.$.*.%.+.z.K K g n x n p a x s x p s i w p j 7 p j p ",
"e 9 7 q 7 9 i e s p e 2 g h s s l v g Z K P U U R Y R K H Z z v m x x x s s k x i 9 p p i s 7 f j x "
};
