/* XPM */
static char *_f6941b0b18c4edab4d4165289e7139306IG8is0MaczKzXh[] = {
/* columns rows colors chars-per-pixel */
"50 50 119 2 ",
"   c #184D0E",
".  c #0D500D",
"X  c #15540E",
"o  c #1A560D",
"O  c #175C0E",
"+  c #1C5B0D",
"@  c #194D12",
"#  c #155312",
"$  c #1A5511",
"%  c #165B12",
"&  c #1C5C12",
"*  c #1D5A1A",
"=  c #215E0E",
"-  c #235E13",
";  c #285F11",
":  c #245D1C",
">  c #1D630D",
",  c #1F680E",
"<  c #1E6212",
"1  c #1C6812",
"2  c #1F671A",
"3  c #23640E",
"4  c #29660E",
"5  c #256A0E",
"6  c #2A6C0E",
"7  c #306F0F",
"8  c #2C710E",
"9  c #32720E",
"0  c #38730E",
"q  c #34780F",
"w  c #246413",
"e  c #2A6514",
"r  c #256A13",
"t  c #2B6C14",
"y  c #256419",
"u  c #2A651A",
"i  c #266A1A",
"p  c #2C6D1A",
"a  c #316E15",
"s  c #30661A",
"d  c #316D1A",
"f  c #2D7114",
"g  c #2D7915",
"h  c #2E721A",
"j  c #2F7A1A",
"k  c #307314",
"l  c #327314",
"z  c #347314",
"x  c #327514",
"c  c #307517",
"v  c #337716",
"b  c #347716",
"n  c #397515",
"m  c #317812",
"M  c #357A10",
"N  c #367D12",
"B  c #357915",
"V  c #377816",
"C  c #377817",
"Z  c #377B17",
"A  c #387811",
"S  c #3A7D14",
"D  c #30701A",
"F  c #33731B",
"G  c #31741A",
"H  c #347418",
"J  c #367418",
"K  c #37741B",
"L  c #33701D",
"P  c #33721F",
"I  c #31741C",
"U  c #34751F",
"Y  c #37741E",
"T  c #39751C",
"R  c #38761C",
"E  c #33781A",
"W  c #34781C",
"Q  c #377B1D",
"!  c #387B19",
"~  c #39791B",
"^  c #3A7B1B",
"/  c #3C7A19",
"(  c #397C1D",
")  c #3C7F1E",
"_  c #2D6D20",
"`  c #326E21",
"'  c #386F23",
"]  c #366C28",
"[  c #2E7021",
"{  c #347021",
"}  c #347421",
"|  c #367620",
" . c #3B7720",
".. c #397622",
"X. c #367A21",
"o. c #387923",
"O. c #3B7B22",
"+. c #3C7D21",
"@. c #3E7C20",
"#. c #38732B",
"$. c #417E1C",
"%. c #427C1F",
"&. c #417D22",
"*. c #437F22",
"=. c #41762E",
"-. c #4D752F",
";. c #437C2C",
":. c #398016",
">. c #3F8115",
",. c #378318",
"<. c #3E811C",
"1. c #3C8020",
"2. c #42831D",
"3. c #428222",
"4. c #488625",
"5. c #488821",
"6. c #43832A",
"7. c #49872B",
"8. c #50852B",
/* pixels */
"+ - & e w w 3 1 r 1 3 w w V L w t h t L t m I L + 5 k G R z H b f t > r r p c $.H N 5 m f h 3 W t 4 ",
"w 4 4 - $ 4 w u t r p t G G G t t t f L W b W r w 6 k D V / W S z e > f w 8 V k f r :.3 t q 5 S k b ",
"$ + X w p t w w h k 3 f E U p f G c V S G d | 6 w r { c *.L t t c t 4 t 6 f t c t 1 k 9 r M 3 f 6 6 ",
"3 o + r r w t r t > 5 t c p t i o.t h p ^ ^ ^ h t f t I @.t t r f t w X r w c f G t r D r k r D 8 t ",
"$ G 3 r t 6 + u w t u h p h p k r t W c ) h D t H 3 r  .H h c e 4 r e k 3 6 6 r 3 f 7 9 f c w c w 3 ",
"< & w - p t u r p p -.t e L ( w t b p p h ^ t r z 5 t h I d 4 3 6 U > w w f m V V 6 r @.w f 4 h 8 3 ",
"w w = e p k k t 3 ) t k t b - f W t t ^ z k V t t V f | 9 d 6 8 t W 3 w p ^ M c k w p 5 q t 3 a f f ",
"$ t $ w i t t a t w k H t f t r f w r i r ^ / f f f k h e a c 6 c H t w z g E c c 8 7 f r k + r f 4 ",
"r - 3 $ h e ; t d t r t 2.G < p r = r D ^ t b I t R n ^ t c G W <.G > 5 D h c G f 6 t t 8 6 3 t 8 t ",
"+ o r t y t 8 a V k k H r n D t t u t t G b ^ G k H t ^ D ^ t g S k 9 f D c 5 U D b t r 4 + w t t w ",
"w r % w p 5 t w h h d c W p L p r h d k p d w / k S ( t U R t r r D b c t c f ^ V k w h 3 3 D k r 4 ",
"t 3 & r t r r r t w D t 8 h ^ d d p U r D L U 4 4 r p U I L N H ^ U / M w d < W W p w 8 t 3 f < c 3 ",
"t r o r t t t 3 & t c 8 H ^ t t L V z c z V U d G w 5 c z w e V d 2.V t t n 5 ^ H w V E ^ w c r h + ",
"< w & w t t w h t 4 p t p w r ] _ t t @.^ m G L t r G U G D M V 2.3.S t r H n r t t e f 4 f 6 t 9 4 ",
"t 3 # - & + t p e w a X.V > = i D t d k G o.a | V <.^ U V ^ p ) I ^ V G W b f u ( m k e ^ ^ 5 h t t ",
"& a w w i r e t 8 r t t w p - D L | o.b =.o.t W / ^ V W ^ ) ^ 2.W ^ b N t h t c n G ^ k g 6 z V r e ",
"w > + < r < U D k > p t V w 3 w k W o.^ S o.D X.t L 2.^ 2.b t W t V H H ) r p V D h r R V t f 9 2.6 ",
"w & $ < o & w r H r w w W : + p h G 1.) D @.^ @.) 2.4.$./ <.t h L U f k ^ d e f h L w V R W k >.b r ",
"> + $ w r 3 t X.t r D t w p 3 t d t o.H >.L I | 5.@.o.*.V D 5 <.^ d c c t d r h k h h c H b S D S <.",
"& w w t w r & r g p h 8 r w 6 t - y ^ t k n ) I H R 3.h S t y *.t p f t z t c 6 p t h t h f t 8 9 0 ",
"r X e t & w w D t d H r t t j u w p ^ y k ^ t W t z h ^ D e V h z ^ p t r D t r U h c t y r k t $.e ",
"r > r i f r d 6 3 I G t h e u H t p p p d H t t r f t V D ^ | t t t r 5 r D h D 2.r p t t | D t z t ",
"w X % h t f h 4 t p L U I ] D k t t w D h k h h p w p p 3.t d p w L + & | r t r ) L t c w t f k t w ",
"< X X 1 f o.r r w h G h 5 r - w e r r t w r h G w p h H o.W h t u d 4 > D t p G c e z r w h V a E t ",
"y & i > 3 & r r p t  .a e 3 > t r k t t p h V G 4 t G I <./ $.k ^ t w w f h h f V t t h r h r 3 w h ",
"X X r i & w p + r r p p G 4 r p G p t h t D o.t r h d E o./ D U d h r c [ ) k t r h r L ^ p V 4 5 G ",
"w . - 1 o > > w f 6 t t r 5 y p p - L | h t H h r g p j W *.c t W z t V i H w ^ t w t f t h t t < a ",
"O < t > 3 p < w > w y c w r t r W D I V g e D h r r t p h ( t r G d e e d d c V p r k 4 6 S r t k t ",
"< & $ + O & r X t 5 r r r e r h p t r t r f r k f t t e U O.h c p g V r r k L V h 6 6 G : G k V c G ",
"< < & + w o w r 3 X t p p p r h r p t h > t u D R h p t t I R h c G k t w r t h D p w L > p c 8 w ( ",
"1 & e # y y w d ; h 5 r t d t h t p L p h f c G L f g p G D r t g R G t + t h r G h t 6 3 p k b f c ",
"O < i < t w r d a p t D r r 6 p t L r { t ^ _ o.^ h U p d ^ t > k D / t w ^ t r <.r p t D L U S a A ",
"- @ t h w p I a p p t y t w w | i W p H t k ^ ^ V t p H ) R r f ^ I V + 3 d o.@.t k / p A p V k w t ",
"& $ < 5 w < r p p o.t d r w w t t D k *.c G L G p V D <.` k I W f ^ @.e r U U t c G k ^ G r U k r t ",
"w $ r & f D t u i I G d w w w h p p o.p r O.h X.X.| L ^ ^ R ^ { ^ 7.D p f L H h D t p I R k d V t u ",
"& % w 3 w G d t t p z p t e w t r p a W p L o.@.^ ^ D 3.;.4.o.{ 3.o.( c h ^ ^ G $.G | r p 6 d c / 6 ",
"X & & > i y I p c H p t e e 3 u D i p H 6.@.G p t L D 3.| @.f o.o.W c @.t r G G b h ^ c & y D H h t ",
"X w & r h 2 c t t D t V ^ ; w ` e r p o.| c h ^ w D ( <.^ R W <.G _ o./ L V d e r V L e w p r p t W ",
"& $ p w u h D e - ; r b _ h = p w d p b h t H d ^ L ^ o.k *.h / k V H H W r 8 t a @.G 2.r b r z t D ",
"& + % w i h y - w 5 t t p t s U r f p c 4 G d U H D e L 5.^ G V e k ^ U t 3 w & t R p D 5 U G ^ t ^ ",
"= - w r r e y p + p M t 4 r e d U t h w r W t a @.a V *.R a U G t D U t r 1 f t c d H k z p L S h u ",
"+ & t w + * r t p r e d a d r p @.^ W p ^ V d w V w y p / t p G E h k h t - ^ w h R p t c a 6 V n t ",
"e i ^ r + u r t - e 5 r r e t p 3 t h d k W L t 6 e h 8.I t t r z | k n *.p r 5 p ^ t h t a t r t p ",
"X r r o # r j e < p D 1 D y t b k y u 4 w h G a 3 3 V d L n ^ 8 t ,.L k E e b t D L H h k t / L 3 r ",
"+ w w t w w t k t e t r L p h G f t h ` t ( ) p 3 r k H d R ^ t L ^ r p h k D k h b r r / r t D e 3 ",
"  # e X e w y u d r p w _ @.d ^ t r b y ' U ) p r t r ^ O.^ p ) X.H t > e R  .h h / 3 y d 3 w t t 4 ",
"& w > O < < y d w r t p e i G  .h U i p t u | t t u @.a H $.f a ^ t d t t f d 5 6 & e t ^ t r k w p ",
"# w , & w - p r f p h t = k p t e p p w d t t a i p  .z t #.d t / H e h t r e w + ^ H e w t p D t 9 ",
"$ - 5 < r r t > r e & r p p d p 5 e e e L z e p t  .L e D $.V w ^ b R r w b t c w t = < r z * t H ; ",
"w 3 $ > % = < + t - 3 X p r t 6 f D r a c t p t { h X.G k k f H ^ a 9 8 e e d V e - r t w t & p k k "
};
