/* XPM */
static char *_460ce006e7248b394c9e4e5992f90a2DxylTB7iym7bFDf8[] = {
/* columns rows colors chars-per-pixel */
"50 50 233 2 ",
"   c #161E20",
".  c #1C2D26",
"X  c #1B2E2A",
"o  c #1C322A",
"O  c #1F372B",
"+  c #1D3530",
"@  c #1D3B33",
"#  c #262D2A",
"$  c #362D26",
"%  c #22342B",
"&  c #2B362D",
"*  c #27392B",
"=  c #3A382B",
"-  c #273432",
";  c #243C33",
":  c #2A3D32",
">  c #2D3D39",
",  c #333B37",
"<  c #42372A",
"1  c #583729",
"2  c #4B3D33",
"3  c #533C31",
"4  c #643B2B",
"5  c #713527",
"6  c #175A0F",
"7  c #1B5C0F",
"8  c #185712",
"9  c #1D5D12",
"0  c #205E0F",
"q  c #215E12",
"w  c #1D610E",
"e  c #1E6111",
"r  c #23630E",
"t  c #27680E",
"y  c #2A6C0F",
"u  c #246413",
"i  c #296614",
"p  c #266914",
"a  c #2B6C14",
"s  c #276918",
"d  c #2D6C19",
"f  c #306F15",
"g  c #3E671E",
"h  c #316E19",
"j  c #2E7115",
"k  c #2E7119",
"l  c #327315",
"z  c #347915",
"x  c #3A7B16",
"c  c #317219",
"v  c #33731A",
"b  c #387519",
"n  c #36791A",
"m  c #397A1C",
"M  c #1D4137",
"N  c #2B402D",
"B  c #37422D",
"V  c #2B4233",
"C  c #274739",
"Z  c #2E413C",
"A  c #364736",
"S  c #3D4C35",
"D  c #3C553A",
"F  c #3B6A22",
"G  c #3E7223",
"H  c #3B7920",
"J  c #46472D",
"K  c #465029",
"L  c #4C4A34",
"P  c #454638",
"I  c #554435",
"U  c #594A39",
"Y  c #485836",
"T  c #44553B",
"R  c #585737",
"E  c #79472F",
"W  c #6B4933",
"Q  c #744C38",
"!  c #63553D",
"~  c #79523E",
"^  c #436E22",
"/  c #556F2D",
"(  c #447522",
")  c #497A25",
"_  c #56722F",
"`  c #57792F",
"'  c #4A6637",
"]  c #59683A",
"[  c #4B7835",
"{  c #5A7B32",
"}  c #5F713C",
"|  c #67693B",
" . c #64733C",
".. c #657E3A",
"X. c #6B7B3C",
"o. c #747D3D",
"O. c #797B3E",
"+. c #2D4942",
"@. c #334744",
"#. c #344B45",
"$. c #385847",
"%. c #3C5B51",
"&. c #396349",
"*. c #444D47",
"=. c #544E43",
"-. c #485749",
";. c #575745",
":. c #535C43",
">. c #5C5B43",
",. c #485B52",
"<. c #565B51",
"1. c #685945",
"2. c #725443",
"3. c #4A6743",
"4. c #576845",
"5. c #5C664E",
"6. c #587748",
"7. c #586657",
"8. c #506E53",
"9. c #5D6954",
"0. c #467653",
"q. c #656744",
"w. c #75684D",
"e. c #677847",
"r. c #6D7C42",
"t. c #797C45",
"y. c #676755",
"u. c #7A6A54",
"i. c #697755",
"p. c #777859",
"a. c #5D7164",
"s. c #6C7364",
"d. c #6B796A",
"f. c #777A67",
"g. c #882C15",
"h. c #864832",
"j. c #8A5236",
"k. c #995737",
"l. c #B84E2C",
"z. c #A6603B",
"x. c #D8501D",
"c. c #D25A2C",
"v. c #E75F25",
"b. c #D96D3D",
"n. c #EB6E33",
"m. c #8E5D42",
"M. c #91694C",
"N. c #82724D",
"B. c #86795A",
"V. c #957B55",
"C. c #A06845",
"Z. c #B66D43",
"A. c #B4764E",
"S. c #AB7854",
"D. c #897B64",
"F. c #917D63",
"G. c #CD784E",
"H. c #D4734A",
"J. c #CB7A55",
"K. c #658437",
"L. c #79833E",
"P. c #588259",
"I. c #618145",
"U. c #7A8342",
"Y. c #788647",
"T. c #628557",
"R. c #758856",
"E. c #7F8F65",
"W. c #798771",
"Q. c #86893E",
"!. c #858848",
"~. c #8A914A",
"^. c #949949",
"/. c #888857",
"(. c #97875A",
"). c #8F9455",
"_. c #979857",
"`. c #AE805D",
"'. c #AC995D",
"]. c #9BA14D",
"[. c #A3A955",
"{. c #AFB45B",
"}. c #B5B95E",
"|. c #898867",
" X c #948769",
".X c #869367",
"XX c #96986D",
"oX c #868C76",
"OX c #958C73",
"+X c #899476",
"@X c #9B9475",
"#X c #98997A",
"$X c #A88C69",
"%X c #B68964",
"&X c #AA9968",
"*X c #B89966",
"=X c #A08F72",
"-X c #A89778",
";X c #A49A7C",
":X c #B59875",
">X c #9EA766",
",X c #BBA46D",
"<X c #B6BB67",
"1X c #AFA272",
"2X c #A6A57A",
"3X c #C78558",
"4X c #D68B59",
"5X c #CA8F69",
"6X c #CB9967",
"7X c #D79B6C",
"8X c #C89D77",
"9X c #D39C74",
"0X c #C5A36A",
"qX c #D9A56C",
"wX c #D1B076",
"eX c #BCC062",
"rX c #C4C668",
"tX c #CACC6E",
"yX c #D5D571",
"uX c #919A81",
"iX c #AB9E83",
"pX c #9FA480",
"aX c #A4A482",
"sX c #A8A787",
"dX c #ABAB8B",
"fX c #BAA986",
"gX c #BDB38E",
"hX c #C1AB89",
"jX c #C1B793",
"kX c #CDC29B",
"lX c #D1C59C",
"zX c #DBCCA1",
"xX c #E1D1A4",
/* pixels */
"9 u 9 u u F F F F F _ _ { ) { _ _ { U.U.U.t.U.t.O.O.t.U.U.X.U.{ ( ^ / / _ _ { { { G ( G G g u j l r ",
"9 u e u u u u u p i i a n n k a d k j ( ( ( ( ( g / ^ ( ) c l x l a r t u j z l l j j j a p p j l t ",
"9 u e u p u u u p u i a n c z j c k j c c c n j i y a c n c c l c i u p p a j c c a j j j a a j l t ",
"9 u e u p i u u i u t j k c z c c k j c c n n c p y p c n c c z c p u p i i a j a a j j j a a j j r ",
"u u w u a i u p i u i a j j z c c k d c c n n z d i d c c c j l j a p p a a j j a a j l a y a j j p ",
"u u w u d a i d p i p a j c c j n a d c c c z z a a c c c c a y a k p p a j j l c a j l i t t a a p ",
"u u 7 p k d p c a a a d c c d j z p d c c c z z j a z c c c y y a n i i a j z z c a j l i t t p a p ",
"u u e u d d d d d i d c l c a j j a I 3 $Xc z z c ..'.6X6X6Xa y c c y i d j l z c j j j y t r p a u ",
"u u u u d c h d j i f l n c p d a B.3 2 = `.K.*XqXqX7XqX4XG.o.j l b a a f d j z l j c a y y u p a u ",
"u u u u d d f p j i f l n c p ..a ! 2 < $ # S.7X3X3X3X*X0XZ.).j z n f a c d j n l j f a y t u a a r ",
"u u u u p p a i j p f z z ` 1X).f p.t.).e.B J C.A.A.Z.Z.Z.z.u.d n n l f c d j n z j d j a t i l a r ",
"u u u u u i i i j p d z K.<X>XyXrXrXrX~.[.~.L.J k.C.C.k.k.j.E /.n n b l c d a n n a a c a u a l a r ",
"q u u u u u i i d i ` tXtXtXtX<X[._.~.~.e.i.K Y < j.j.m.h.E 4 &Xn n x l c d a n c c a d d a a j j t ",
"q u 9 u u u p p p <XrXtXyX_.!.{.^.!.Y Y P s.  B & < Q W W u.u.XXm m x z j j a c c z f d c j a j j y ",
"q u 9 u u u d a i [.{.}.eX<X!.Y.R r. .K + M C 4.* # = U 3 =.d.iXm m x z k d d j c c l d c l a j c a ",
"u u 7 u u u d f _.].[.[.[.~.B  . . . .} i.e.R.} S : % = I 2 =. Xm n n z n d d j d d c c c l a l l a ",
"u u 7 u u u a f Y.~.^.^.^.!.!.U.o.o.U.X.]  .]  .X.' N # = U P .Xm c c z n d d j d d c c c l l l l d ",
"u 9 9 u u u p c r.L.Q.Q.Q.L.O.O.O.U.U.L.U.o.U.X.] } D N . B 9.m c c c l c h d d d d j n z l l z l c ",
"q 6 9 u u p p k p.R ] | | | | R R J J J Y ] ] (.(.q.T A % - -.m h h d a d c d p d d k c z l l z z c ",
"u 6 9 u p p p k j u.F.2.=X;Xf.2 = B L q./.*XwXwX&X(.] A - , P n d h d i d c d p c d k c c c z l z c ",
"u 6 9 u p p d d a d ;X;.D.:.-.T 3.4.B./.V.V.(.N.(.q.T V > 7.c c d d d i d d d d c d a j a d z l l f ",
"u 9 9 p p p d d a d c sX5.T T T :.:.:.:.4.>.>.w.>.S V > Z ; |.d d h p i j d d c c d d d p d n z l a ",
"q 9 u u u p p p p s c c d d p 2X|.y.5.5.5.5.5.:.A V ; Z ,.#Xc a p d p p j j p j c k j p p d c j a a ",
"9 e u e u u p p p a n c d p p k a k p |.5.9.5.A : V #.@.+..Xc a a f i p c *Xp d n c n p p j c a a f ",
"9 9 u e e u p p d a k j d p p k a k p D.9.:.U 4 < Z #.> %.a.$.#Xd X.!.H.H.5XX.d n c c d a j j a i l ",
"9 9 u u e u p p p p j j d u u d d k -XD.f.4 5 U ,.-.> Z Z $.%.#Xh 7X4XH.9Xk d f j k k c d j j y p j ",
"9 8 u u e u p p p p a d a p p s d d d h.5 1 Q a.V V D D : :.i.%.B.`.G.J.c.d d h a j d c j j j y t j ",
"7 6 u u 7 u p u u u u a p p s a d d d :X1 I ;.y.-.A 4.6.T.S : #.$.5.l._ c h a h d j d c d d j y i j ",
"7 9 u e 7 u u r r 9 u p s d d a p d d oXR ;.|.@X|.; 4.R.R.T.X & a.8XJ.5Xd f a f d d d c d a a a d k ",
"7 9 u r w u u u r u u p s d d a p d ; 7.i.f.&X,X,Xt.Y.Y.r.3.: . A pXzX9Xv.n.d d d d a c d I.j a j k ",
"7 7 u u u i u u u a a p p p d a p #.- i. X.X&X0X_.~.!.r.T : o + & +XjXS.x.v.c j d d a c .Xc c a f c ",
"7 9 u u p a p d p k d a p u p a s.: y.&XL.Y.'. X XY.r.Y % X + ; > =.fXm.g.l.n ( d d d 2X2Xc c f f f ",
"9 9 u u p d p d a k h d d u u d 5.R.c ).,X0X0X$X|.Y.|.s.X + M M C Z P u.~ hXH.v.b.{ .X.Xc c c j d a ",
"u 9 u u p d s d k k h c d u p d k k n XX*X*X*XV.! R OX, @ C $.$.+.C #.$.-.N.(./.E.P..Xc c d d j d a ",
"q 9 u u p s d h k c c k d u u d k OXc sXw.N.N.w.1.w.1.% D 6.6.3.$.C &.0.0.P.T.P.8.aXn c c d p c c d ",
"9 9 9 u p d s c n h c d d u u d d k d A & >.! 1.! R L A 3.q.4.3.&.C $.&.0.0.8.#Xc n z n d p p c c j ",
"9 9 9 p p d s j c h c d d u u d d k d B % & >.! ! ! U S Y.e.] ] 3.D T :.|.XXn k c c z z a p a c n k ",
"9 9 u i p s k p a a c c d i i a a h d p.; o X = L |.B.T | | S S Y @Xm n n c c a c m c z a p f c c c ",
"9 q i i p s k u u i f c c p p d a h d j N * % o X <.lX|.W R Y S L l m m c j i u c H c z d p l c c c ",
"9 u i p p p a u u i f c f p d d h c k j .X;.% % o o aXkXS K S B B #Xn m k a i u h H c c d d l c c c ",
"u u p a p u u i u p d f a d d h c *X%XM.=XfXp.. o o jXxXgX:.: N ; V aXn d a a p d c c j d f l x c d ",
"u u p a p u u i u d d d a d /.8XS.M.~ 4 I ;.A X o % kXxXzXzXy.% o ; f.c XXaXOX[ d h c d d c l l l p ",
"r u p p u u u i u d p p d d $XV.W 2.y.f.-.; ; + O % ;.1XfX;X-.o o ; $.;.2 =.1.;Xd c k j d d c c f i ",
"7 u i u u p [ -X;X|.p p d d c c oXs.*., P # *.# X % > -.-.%.> ; V V 9.P =.@Xc d d c d c d a a a p u ",
"6 u u u u i -X-X=X2.XX X-Xd c +Xd.7.,.$.@.@.@.#.#.@.+.-.d.y.7.y.;X|.-X-X,.7.d.W.oXuXsXdXE.R.p p i u ",
"9 u u u u #X XF.u.1.D.;XsXd c c c /.OXf.oXW.W.d.d.7.,.<.P y.- 1.:X# 1.0XS.dX+X[ a c i d d i p d p p ",
"8 e u 9 u R.d R.aXe.j p u d c @XF.w.w.OXd H H d d k aX@X@XoXdXsXsXdX-X&X:XI.c a i f i d d i i j d p ",
"9 q e 9 u p a i p d d u u d c d j h d i h n n s d c m c c c c c b l l c a d c [ i a p a a i i j d a ",
"7 q q 9 u p a u p d a u u d d d a c d p h c d a c c m l c n f c c l l l a d j a i a p p a i i d f G ",
"' q 0 9 u p a u p d p u p d d d a c d d h c d p c c m c c c d c c l l l f a a a i a d p a i F [ [ [ "
};
