/* XPM */
static char *_3648f9d97f44f1ed72ae0d347c0458f4astUAf5RsC5ncA2[] = {
/* columns rows colors chars-per-pixel */
"50 50 237 2 ",
"   c #151A22",
".  c #1B2D25",
"X  c #1B2D2A",
"o  c #1C332B",
"O  c #1E362A",
"+  c #1C3732",
"@  c #262C2A",
"#  c #362C28",
"$  c #22342B",
"%  c #26362A",
"&  c #2B3E2D",
"*  c #39382B",
"=  c #243C33",
"-  c #283933",
";  c #2C3D3C",
":  c #363937",
">  c #403427",
",  c #58372C",
"<  c #553A2D",
"1  c #493B32",
"2  c #6A372D",
"3  c #65382B",
"4  c #1A4239",
"5  c #2B412D",
"6  c #36452E",
"7  c #2A4334",
"8  c #28493A",
"9  c #374836",
"0  c #3C553A",
"q  c #46462D",
"w  c #48542C",
"e  c #484636",
"r  c #584738",
"t  c #485736",
"y  c #435A3C",
"u  c #575738",
"i  c #7A442D",
"p  c #6A4733",
"a  c #744936",
"s  c #62543D",
"d  c #67583D",
"f  c #4A633B",
"g  c #59683A",
"h  c #5F713C",
"j  c #68683A",
"k  c #68783D",
"l  c #777D3D",
"z  c #2E4645",
"x  c #334747",
"c  c #2F5744",
"v  c #385647",
"b  c #3B5C53",
"n  c #39634A",
"m  c #444946",
"M  c #544D45",
"N  c #495848",
"B  c #565845",
"V  c #5C5C43",
"C  c #475852",
"Z  c #575A52",
"A  c #714B40",
"S  c #675845",
"D  c #755244",
"F  c #4A6643",
"G  c #596748",
"H  c #5A7746",
"J  c #576557",
"K  c #5D6953",
"L  c #457753",
"P  c #4F7752",
"I  c #636743",
"U  c #77694C",
"Y  c #697946",
"T  c #676656",
"R  c #786755",
"E  c #6A7657",
"W  c #797B54",
"Q  c #5B7264",
"!  c #6C7A6A",
"~  c #797867",
"^  c #71736E",
"/  c #872812",
"(  c #84342A",
")  c #894C31",
"_  c #88543A",
"`  c #995638",
"'  c #B74E2B",
"]  c #AD653D",
"[  c #D75A2C",
"{  c #EB6024",
"}  c #F47C3B",
"|  c #8F5C43",
" . c #9B6648",
".. c #83724C",
"X. c #887A57",
"o. c #927158",
"O. c #B4724A",
"+. c #A97758",
"@. c #8A7A65",
"#. c #937A63",
"$. c #D7744C",
"%. c #CC7955",
"&. c #78843E",
"*. c #4F845B",
"=. c #5C855C",
"-. c #798646",
";. c #79934E",
":. c #648955",
">. c #748053",
",. c #7F926F",
"<. c #798773",
"1. c #86873E",
"2. c #838A48",
"3. c #89934C",
"4. c #979945",
"5. c #8C8557",
"6. c #918B53",
"7. c #98875A",
"8. c #98975A",
"9. c #B3825E",
"0. c #9AA151",
"q. c #A5A84E",
"w. c #ABB15A",
"e. c #888868",
"r. c #958768",
"t. c #82916D",
"y. c #888B77",
"u. c #958A73",
"i. c #87927B",
"p. c #999578",
"a. c #AB8B67",
"s. c #B68765",
"d. c #AA9969",
"f. c #B99A65",
"g. c #A48C73",
"h. c #A99679",
"j. c #A39A7D",
"k. c #B79A75",
"l. c #9EAB65",
"z. c #B0A36F",
"x. c #B8BD65",
"c. c #B4A47B",
"v. c #C68658",
"b. c #D88B59",
"n. c #D2A15B",
"m. c #CE976F",
"M. c #CCAB6F",
"N. c #C5A77A",
"B. c #D9A774",
"V. c #DAB77A",
"C. c #E5A876",
"Z. c #BCC46F",
"A. c #C2C25E",
"S. c #C4CA68",
"D. c #CBD26A",
"F. c #DAD875",
"G. c #959D82",
"H. c #A99883",
"J. c #A9A787",
"K. c #B7A988",
"L. c #B8B48C",
"P. c #AFB596",
"I. c #BBB997",
"U. c #C5A784",
"Y. c #D9AD84",
"T. c #C5B58D",
"R. c #D6B888",
"E. c #C5BC96",
"W. c #C8B994",
"Q. c #C3BD9A",
"!. c #DDB592",
"~. c #D5BE97",
"^. c #DBBA95",
"/. c #DCBE99",
"(. c #E4AC83",
"). c #ECAD87",
"_. c #E6AF8D",
"`. c #EAAE89",
"'. c #F1AC86",
"]. c #F3AF88",
"[. c #E8B487",
"{. c #E4B28E",
"}. c #ECB38B",
"|. c #ECB98F",
" X c #F2B58C",
".X c #F2B88E",
"XX c #E2B391",
"oX c #E2B592",
"OX c #E5BC94",
"+X c #EBBC91",
"@X c #E1BD99",
"#X c #F6BB92",
"$X c #F2BE92",
"%X c #F5BD92",
"&X c #BFC5A3",
"*X c #D7D08A",
"=X c #C4C29D",
"-X c #CCC59B",
";X c #CFCA9F",
":X c #D8C496",
">X c #D5C49B",
",X c #DCC39C",
"<X c #D4C99E",
"1X c #DBCA9E",
"2X c #E5CA8C",
"3X c #E6C596",
"4X c #ECC395",
"5X c #E4C59B",
"6X c #EAC598",
"7X c #E4CA9C",
"8X c #EBCD9D",
"9X c #F3C294",
"0X c #F2C892",
"qX c #F2C699",
"wX c #F4CA9C",
"eX c #EBD19F",
"rX c #C5C6A3",
"tX c #C8C7A3",
"yX c #C7C8A2",
"uX c #CCCAA3",
"iX c #D2CEA4",
"pX c #DCCCA1",
"aX c #D5D0A4",
"sX c #DCD2A6",
"dX c #DCD4A8",
"fX c #E5CEA2",
"gX c #E8CEA1",
"hX c #F5CEA1",
"jX c #E3D3A5",
"kX c #ECD4A4",
"lX c #E4D5AA",
"zX c #EAD7A9",
"xX c #E6D9AA",
"cX c #EBD9AB",
"vX c #F2D4A3",
"bX c #F0D8A7",
"nX c #F0D9AA",
/* pixels */
"!.!.XX{._._.`.`.`.`.).).).).).).).).'.'.'.'.'.'.'.'.'.'.'.'.'.).).).).).).`.`.`.`.`._._._._.XXXX!.!.",
"!.!.XXXX{.{.{.}.}.}.}.`.}.}.}.}.).).).]. X].].].].].].]. X X}.}.}.}.}.).}.`.}.}.`.`._._.{.{.XX!.!.!.",
"!.!.!.XX{.{.{.}.}.}.}.}.}.}.}.}.}.}. X X X X X X X X X X X X}.}.|.|.|.|.}.}.}.}.}.{.{.{.{.{.XX!.!.^.",
"^.!.!.XX{.{.XX{.{.}.|.|.|.|.|.|. X X X X X X X X X X X X X X X X X X|.|.|.|.|.}.{.{.{.{.{.XXXX!.^.^.",
"^.^.!.XXXXoXoX{.{.|.|.|.|.|.|.|..X.X.X.X X.X.X.X.X X.X X X.X.X.X.X X|.|.|.|.|.|.|.+XoXoXXXXXoX!.^.^.",
"^.!.!.oXXXoX|.+X+X|.|.|.|.|.|..X.X.X%X%X#X#X#X#X%X#X#X#X#X#X#X#X.X.X.X.X|.|.|.|.|.+XoXOXXXXX@X!.^.~.",
"/./.@X@XOXoXoXoX+X|.+X+X+X+X$X$X#XqX>X^.0X9X%XqX9X%X9X9X%X%X%X%X%X%X$X%X+X+X|.|.|.|.oXOXOXOX@X/././.",
"/./.@XOXOXoX+X+XOX+XOX+X$X$X$X$X$XT.r < a.0XR.pXR.[.B.B.m.m.%X%X%X%X$X$X$X+X+XOXOXOX+XOXOXOX@X/./.>X",
"/./.@XOXOXOXOX+X4X4X4X4X4X9X9X9X9X@.< 1 # +.V.B.C.C.B.B.n.%.(.%X9X9X9X9X4X4X4X4X4XOXOX+XOXOX@X/./.>X",
",X,X/.OXOX3X4X4X4X4X4X4X4X4X4XN.9Xs 1 > # # +.m.v.v.v.f.n.O.N.9X9X9X9X9X4X4X4X4X4X4X4X3XOXOX/.,X>X>X",
",X,X5X5X5X4X4X4X4X4X4X4X4XR.z.8.2X>.W 8.Y 6 q  .+.O.O.O.] ] U +X9X9X9X4X4X4X4X4X4X4X4X4X5X5X,X,X>X>X",
",X,X5X5X5X6X6X6X4X4X4X2XF.x.l.F.S.S.S.3.w.3.&.q `  . .` ` ) a U.qXqXqX4XqX4X4X4X4X4X6X5X5X5X5X,X,X>X",
",X,X5X5X5X6X6X6X6X:XF.D.S.D.D.x.0.0.2.3.Y E w w > _ _ | ) i 3 N.qXqXwXqXqXqXqX4X4X6X6X5X5X5X5X,X,X>X",
"1X,X5X5X5X5X6X6XT.Z.S.D.F.8.2.w.3.2.t t m ^   6 % > a p a R R K.qXqXqXwXqXqX4X6X6X6X6X5X5X5X5X,X,X<X",
"1XpX5X5X5X7X7X7X*Xw.w.x.A.x.2.-.u k h t + 4 8 G & % * r < M ! H.wXwXwXwXqXwX8X8X7X7X7X7X5X5X5XpX1X1X",
"1XpX5X5X7X7X7XeX0.0.q.q.q.3.* j k k k h Y Y >.h 0 & @ * r 1 M u.wXwXwXwXwXwX8X8X8X8X8X7X7X5X5XpX1X<X",
"pXpX7X7X7X8X8X1X2.4.4.4.4.2.2.-.l &.&.k g h g k k f 5 $ * r e K.wXwXwXwXwX8X8X8X8X8X8X8X7X7X7XpXpXpX",
"pXpX7X7X7X8X8X7Xk l 1.1.1.&.l l l -.-.&.-.l -.k h g 0 5 . : K ~.hXhXwXwXwX8X8X8X8X8X8X8X8XgX7XpXpXpX",
"pXpXfXfXfX7X8XeXW u g j j j j u u q q q w g g 7.7.I y 6 @ - N 7XvXhXhXvXvX8X8X8X8X8X8X8X7XfXfXpXpXpX",
"pXpXfXfXfX7X8X8X:XX.@.S g.H.@.1 * 6 e I 5.f.V.M.d.7.g 9 - : e kXvXvXvXvXvXkXeXeX8X8XkXfXfXfXfXpXpXpX",
"pXpXfXfXfXgXgXkXkX:Xj.B @.B N y F F X.5.X.6.7...7.I t 7 ; J W.bXvXvXvXvXvXkXkXkXkXkXfXgXjXjXjXfXpXpX",
"pXpXjXjXjXgXkXkXkXkXjXJ.G y y y B u B B G V u U V 9 & ; ; = e.vXvXvXbXbXvXvXkXkXkXkXkXjXjXjXjXfXpXpX",
"pXpXjXjXjXjXkXkXkXkXkXkXkX>XT.J.e.T K K K K G B 9 7 = ; C p.kXbXvXvXvXvXvXbXkXkXkXkXjXjXjXjXjXfXpXpX",
"pXpXjXjXjXjXkXkXkXkXkXkXkXbXbXbXbXkX-Xe.K K G 9 - 7 x z z L.fX~.vXvX8X4X[.B.[.kXkXkXjXjXjXjXjXjXaXiX",
"iXpXjXjXjXjXjXzXkXzXzXzXkXkXbXbXbXbXbX@.K B r 2 1 8 x ; b Q v L.kX[.C.$.$.m.Y.kXkXkXjXjXjXjXjXjXaXiX",
"aXsXjXjXjXjXjXzXzXzXzXzXcXcXcXbXbXnXg.@.~ 3 ( r C C ; ; 7 v b G.7Xm.b.$.B.^.kXkXzXzXjXjXjXjXjXjXaXaX",
"aXsXjXjXjXjXjXxXzXcXcXcXcXcXnXnXnXnXkX( 2 , A Q 7 7 0 0 & F :.n X.9.%.%.' 3XzXzXzXzXjXjXjXjXjXsXaXaX",
"aXsXjXjXjXjXjXxXzXcXzXcXcXcXcXcXnXnXnXc., r B T N 8 F H :.0 & c b J ' Y.7XkXzXzXxXjXjXxXjXsXjXsXaXaX",
"aXsXsXjXjXjXjXxXzXzXzXcXcXcXcXcXcXcXE.i.u B e.p.e.= H ;.;.:.X - Q N.%.m.6X8XcXzXxXjXjXxXjX<XjXsXaXaX",
"iXsXsXjXlXxXxXxXxXzXzXcXcXcXcXcXcXE.= J E >.d.z.z.W ;.-.Y f - @ 9 j.1Xm.{ } 8XxXxXxXjXxXjXL.dXsXaXaX",
"iXaXsXsXlXxXxXxXxXxXxXcXcXcXcXcX-Xv - E r.e.M.M.8.3.2.-.t & X + % i.T.+.[ { [.xXxXjXjXlXL.-XsXsXaXaX",
"aXaXsXsXjXxXxXxXxXxXxXcXcXcXcXcX! & T d.V.V.V.r.r.-.Y t o X + = - M K.| / ' +X[.6XjXsXc.j.dXsXsXaXiX",
"aXaXsXsXsXlXxXxXxXxXxXxXxXcXcXjXJ L.>XN.M.B.M.a.r.-.e.~ X + 4 4 8 9 e R D U.$.{ $.N.e.t.aXsXsXaXaXaX",
"iXaXsXsXsXlXlXxXxXxXxXxXxXxXxXjXE.E.cXK.f.f.f.#.s u u.: + 8 v c 8 8 c v N ..7.5.e.=.,.iXdXsXsXaXaXiX",
"iXaXaXsXsXsXsXxXxXxXxXxXxXxXxXcXjXu.sXJ.U U ..U S U S $ 0 H H F c 8 n L L =.=.*.P J.aXsXdXsXsXaXaXiX",
"iXaXaXsXsXsXsXlXxXxXxXxXxXxXxXxXxXxXxX9 % V s S d u e 7 f I F F n 8 c n L L P p.iXdXsXsXsXdXaXaXiXiX",
"iXiXaXaXaXsXsXlXlXxXxXxXxXxXxXxXxXxXxX6 $ & S d d s r 0 -.Y g g F 0 y B e.L.aXdXdXsXdXdXdXdXaXiXiXiX",
"iXiXaXaXdXdXsXsXlXlXlXxXxXxXxXxXxXxXxXW & O . * e e.X.t j j 9 0 y p.T.pXlXlXlXdXsXdXaXdXaXaXaXiXiXuX",
"iXiXiXaXaXdXdXsXdXlXlXlXlXxXxXxXxXjXxXE.6 % $ o X Z <Xe.p u t 9 e E.lXsXlXlXdXsXsXaXdXdXaXaXaXiXiXuX",
"iXiXiXaXaXaXdXdXdXsXsXdXaXlXxXxXpXpX1XpXK.B $ $ O o J.-X9 t 6 6 7 p.=XdXdXsXaXaXaXaXdXdXaXaXiXiXuXuX",
"uXiXiXiXiXaXaXaXaXsXsXsXsXjXpX^.Y.N.s.o.g.K.E . . o E.jXL.B & & = 7 L.sXdXaX<XaX;XaXaXaXiXiXiXiXuXuX",
"uXuXiXiXiXiXiXaXaXaXsXsXsX<XU.m.+. .D 3 r S 9 X o $ -XpXpXiXT O o = ~ iXK.J.u.T.iXaXiXiXiXiXiXuXuXuX",
"uXuXuXiXiXiXiXiXiXaXaXiX>XW.a.o.p D T ^ N - = o O $ B k.K.j.N X O = v B 1 M S j.E.iXiXiXiXiXuXuXuXuX",
"uXuXuXuXiXiXT.c.J.K.iX>XpXpX~.T.y.T m : m @ m @ X $ ; C C b ; = 7 7 K e M p.=XiXiXiXiXiXuXuXuXuXuXtX",
"tXuXuXuX=XE.h.h.g.D K.r.h.iXQ.y.! J J m z x x x x z z C ! T J T j.e.j.h.C J ! <.i.G.J.P.I.I.rXuXtXtX",
"tXtXtX=XQ.K.r.#.R S @.j.J.-XiX-XW.K.u.~ i.<.<.! ! J C Z e T - S k.@ S n.+.J.I.=XyXuXuXuXuXuXuXtXtXtX",
"tXtXtXtXtXI.tXI.J.I.uXuXiXiXiXp.#.U R u.iXiXiXiXaXaXJ.p.p.y.J.J.J.P.c.N.k.L.uXuXuXuXuXuXuXuXtXtXtXtX",
"rXrXtXtXtXtXtXtXuXuXuXuXuXuXuXuXiXiXuXiXuXiXiXiXiXiXiXiXiXiXiXiXuXiXuXuXuXuXQ.I.uXuXuXyXtXtXtXtXrXrX",
"rXrXrXrXrXtXrXrXtXyXuXuXuXuXuXuXuXuXuXuXuXuXuXuXuXuXuXuXuXuXuXuXuXuXuXuXuXuXuXtXrXrXtXtXtXrXrXrXrX&X",
"&X&X&XrXrXrXtXtXtXrXyXyXuXuXuXuXyXuXuXuXuXuXuXuXuXuXuXuXuXuXuXuXuXuXuXuXyXyXrXtXtXrXtXtXrXrX&X&X&X&X"
};
